<?xml version="1.0" encoding="utf-8"?>
<!-- Generator: Adobe Illustrator 17.0.0, SVG Export Plug-In . SVG Version: 6.00 Build 0)  -->
<!DOCTYPE svg PUBLIC "-//W3C//DTD SVG 1.1//EN" "http://www.w3.org/Graphics/SVG/1.1/DTD/svg11.dtd">
<svg version="1.1" id="Layer_1" xmlns="http://www.w3.org/2000/svg" xmlns:xlink="http://www.w3.org/1999/xlink" x="0px" y="0px"
	 width="322.911px" height="74.174px" viewBox="0 0 322.911 74.174" enable-background="new 0 0 322.911 74.174"
	 xml:space="preserve">
<symbol  id="Builders_Logo" viewBox="0 -28.019 243.956 56.038">
	<path id="Points_3_" fill="#FFFFFF" d="M176.771-20.891c-2.943,2.699-7.045,3.74-10.919,2.773
		c-3.973-0.992-8.134,0.671-10.33,4.127c-0.139,0.219-0.213,0.473-0.213,0.732c0,0.754,0.611,1.365,1.365,1.365h23.371
		C179.822-15.141,178.687-18.259,176.771-20.891z M140.354-11.893h-23.371c-0.754,0-1.365-0.611-1.365-1.365
		c0-0.259,0.074-0.513,0.213-0.732c2.195-3.456,6.357-5.119,10.33-4.127c3.874,0.967,7.976-0.074,10.919-2.773
		C138.995-18.259,140.13-15.141,140.354-11.893z M3.318-20.892c2.943,2.699,7.045,3.74,10.919,2.773
		c3.973-0.992,8.134,0.671,10.33,4.127c0.404,0.636,0.216,1.48-0.42,1.884c-0.219,0.139-0.473,0.213-0.732,0.213H0.042
		C0.267-15.142,1.402-18.261,3.318-20.892z"/>
	<path id="Builders_text_3_" fill="#3E7240" d="M87.507-23.941c0-2.249-1.823-4.072-4.072-4.072s-4.072,1.823-4.072,4.072V2.545
		c0,2.249,1.823,4.072,4.072,4.072s4.072-1.823,4.072-4.072V-23.941z M100.714,23.946c0,2.249-1.823,4.072-4.072,4.072
		s-4.072-1.823-4.072-4.072v-47.889c0-2.249,1.823-4.072,4.072-4.072s4.072,1.823,4.072,4.072V23.946z M202.467-1.531
		c2.249-0.003,4.074,1.818,4.077,4.066s-1.818,4.074-4.066,4.077c-0.002,0-0.004,0-0.005,0h-0.037
		c-9.555-0.011-17.295-7.76-17.295-17.315v-13.243c0-2.249,1.823-4.072,4.072-4.072c2.249,0,4.072,1.823,4.072,4.072v13.243
		c0,0.004,0,0.008,0,0.012C193.29-5.625,197.402-1.525,202.467-1.531z M74.312-10.702V2.541c0,2.249-1.823,4.072-4.072,4.072
		s-4.072-1.823-4.072-4.072v-13.243c0-5.065-4.106-9.171-9.171-9.171s-9.171,4.106-9.171,9.171V2.541
		c0,2.249-1.823,4.072-4.072,4.072s-4.072-1.823-4.072-4.072v-13.243c0-9.563,7.752-17.315,17.315-17.315
		S74.312-20.265,74.312-10.702z M240.059-11.26l-15.383,6.932c-0.196,0.088-0.356,0.239-0.457,0.429
		c-0.249,0.471-0.069,1.055,0.402,1.304c4.139,2.189,9.262,0.91,11.885-2.969c1.256-1.865,3.786-2.359,5.652-1.103
		s2.359,3.786,1.1,5.656c-5.352,7.924-16.115,10.01-24.04,4.657c-1.502-1.015-2.836-2.259-3.952-3.688
		c-2.249-2.878-1.739-7.035,1.14-9.284c0.417-0.326,0.872-0.601,1.355-0.818l15.383-6.932c0.196-0.088,0.356-0.239,0.457-0.429
		c0.249-0.471,0.069-1.055-0.402-1.304c-4.141-2.19-9.266-0.908-11.888,2.974c-1.259,1.864-3.79,2.354-5.653,1.095
		c-1.864-1.259-2.354-3.79-1.095-5.653c5.352-7.924,16.115-10.01,24.04-4.657c1.502,1.015,2.836,2.259,3.952,3.688
		c2.249,2.878,1.739,7.035-1.14,9.284C240.997-11.753,240.542-11.478,240.059-11.26 M173.616-24.2
		c1.102,0.885,1.277,2.495,0.392,3.596c-0.257,0.32-0.588,0.574-0.964,0.739c-2.172,0.956-4.601,1.163-6.904,0.588
		c-4.471-1.116-9.155,0.755-11.625,4.645c-0.26,0.41-0.399,0.886-0.399,1.372c0,1.413,1.145,2.558,2.558,2.558h23.413
		c0,9.563-7.752,17.315-17.315,17.315c-9.563,0-17.315-7.752-17.315-17.315s7.752-17.315,17.315-17.315
		C166.716-28.015,170.541-26.669,173.616-24.2z M140.397,23.931c0,2.258-1.83,4.088-4.088,4.088s-4.088-1.83-4.088-4.088V8.008
		c0-0.287-0.049-0.572-0.144-0.842c-0.465-1.316-1.908-2.005-3.224-1.54c-9.016,3.187-18.908-1.539-22.095-10.554
		c-3.187-9.016,1.539-18.908,10.554-22.095c5.653-1.998,11.938-0.929,16.613,2.826c1.102,0.885,1.277,2.495,0.392,3.596
		c-0.257,0.32-0.588,0.574-0.964,0.739c-2.172,0.956-4.601,1.163-6.904,0.588c-4.471-1.116-9.155,0.755-11.625,4.645
		c-0.26,0.41-0.399,0.886-0.399,1.372c0,1.413,1.145,2.558,2.558,2.558h23.413L140.397,23.931z M22.272,5.889
		c-0.317,0.095-0.621,0.227-0.905,0.395c-1.945,1.146-2.592,3.652-1.446,5.597c3.001,5.092,1.307,11.652-3.785,14.654
		c-1.647,0.971-3.523,1.482-5.434,1.482C4.792,28.018,0,23.226,0,17.316c0-0.006,0-0.012,0-0.018L0-10.7h23.413
		c0.486,0,0.962-0.138,1.372-0.399c1.193-0.758,1.545-2.338,0.788-3.531c-2.471-3.89-7.154-5.761-11.625-4.645
		c-2.303,0.575-4.731,0.368-6.904-0.588c-1.293-0.569-1.88-2.079-1.311-3.372c0.165-0.376,0.419-0.707,0.739-0.964
		c7.455-5.988,18.354-4.799,24.342,2.656S35.613-3.19,28.158,2.799C26.414,4.199,24.415,5.249,22.272,5.889z"/>
</symbol>
<symbol  id="Deleted_Symbol" viewBox="-18.325 -36.151 36.651 36.651">
	<path id="Circles_2_" fill="#DEE0DE" fill-opacity="0.5" stroke="#333333" stroke-miterlimit="10" d="M-17.825-17.825
		C-17.825-7.981-9.845,0,0,0s17.825-7.981,17.825-17.825S9.845-35.651,0-35.651S-17.825-27.67-17.825-17.825L-17.825-17.825z"/>
	<g id="Stars_3_">
		<g opacity="0.8">
			<path fill="#FFFFFF" d="M9.365-30.715c-3.053,1.234-6.02,2.714-8.837,4.41L0-25.987l-0.528-0.318
				c-2.818-1.696-5.784-3.176-8.837-4.41c0.23,3.285,0.721,6.564,1.464,9.768l0.139,0.6l-0.465,0.404
				c-2.484,2.156-4.808,4.52-6.925,7.042c3.196,0.796,6.466,1.342,9.742,1.626l0.614,0.053l0.24,0.567
				C-3.275-7.627-1.745-4.686,0-1.893c1.745-2.793,3.275-5.734,4.557-8.763l0.24-0.567l0.614-0.053
				c3.276-0.284,6.546-0.83,9.742-1.626c-2.117-2.522-4.442-4.886-6.925-7.042l-0.465-0.404l0.139-0.6
				C8.644-24.151,9.135-27.43,9.365-30.715z"/>
		</g>
		<path d="M0-3.867c1.359-2.314,2.571-4.721,3.615-7.187l0.48-1.134l1.227-0.106c2.668-0.231,5.331-0.639,7.953-1.217
			c-1.781-2.008-3.696-3.904-5.718-5.659l-0.931-0.807l0.278-1.2c0.604-2.609,1.04-5.268,1.3-7.94
			c-2.461,1.074-4.855,2.309-7.149,3.69L0-24.793l-1.055-0.635c-2.294-1.381-4.688-2.616-7.149-3.69
			c0.26,2.672,0.695,5.331,1.3,7.94l0.278,1.2l-0.931,0.807c-2.022,1.755-3.938,3.651-5.718,5.659
			c2.622,0.578,5.285,0.986,7.953,1.217l1.227,0.106l0.48,1.134C-2.571-8.588-1.359-6.181,0-3.867 M0,0
			c-2.143-3.244-3.983-6.677-5.5-10.256c-3.873-0.336-7.707-1.026-11.454-2.061c2.423-3.04,5.119-5.852,8.055-8.399
			c-0.877-3.787-1.406-7.646-1.58-11.53c3.64,1.365,7.147,3.061,10.478,5.065c3.331-2.005,6.838-3.7,10.478-5.065
			c-0.173,3.884-0.702,7.743-1.58,11.53c2.936,2.548,5.632,5.359,8.055,8.399c-3.747,1.035-7.581,1.725-11.454,2.061
			C3.983-6.677,2.143-3.244,0,0L0,0z"/>
	</g>
</symbol>
<g id="Header_Background">
	<rect id="Background_1_" x="-340.737" y="-33.102" display="none" fill="#99AD99" width="1008.36" height="141.64"/>
	
		<use xlink:href="#Builders_Logo"  width="243.956" height="56.038" id="XMLID_4_" x="0" y="-28.019" transform="matrix(1.3236 0 0 -1.3236 1.218437e-004 37.0869)" overflow="visible"/>
</g>
</svg>
