<?xml version="1.0" encoding="utf-8"?>
<!-- Generator: Adobe Illustrator 17.0.0, SVG Export Plug-In . SVG Version: 6.00 Build 0)  -->
<!DOCTYPE svg PUBLIC "-//W3C//DTD SVG 1.1//EN" "http://www.w3.org/Graphics/SVG/1.1/DTD/svg11.dtd">
<svg version="1.1" id="Layer_1" xmlns="http://www.w3.org/2000/svg" xmlns:xlink="http://www.w3.org/1999/xlink" x="0px" y="0px"
	 width="120px" height="120px" viewBox="0 0 120 120" enable-background="new 0 0 120 120" xml:space="preserve">
<symbol  id="Brand_Logo" viewBox="0 0 151.076 151.084">
	<g id="Brand_logo_2_">
		<polygon id="Size_4_" fill="#DEE0DE" points="151.076,151.084 0,151.084 0,0 151.076,0 		"/>
		<path id="Circle_5_" fill="#F2F2F2" d="M13.621,75.542c0,34.196,27.721,61.917,61.917,61.917s61.917-27.721,61.917-61.917
			s-27.721-61.917-61.917-61.917S13.621,41.346,13.621,75.542L13.621,75.542z"/>
		<path id="B_5_" fill="#DEE0DE" d="M85.1,86.898c-0.611,0.183-1.197,0.438-1.746,0.762c-3.751,2.211-5,7.045-2.789,10.796
			c5.789,9.821,2.52,22.475-7.301,28.264c-3.176,1.872-6.795,2.859-10.481,2.859c-11.4,0-20.642-9.242-20.642-20.642
			c0-0.035,0-54.038,0-54.038H87.3c0.937,0,1.855-0.267,2.646-0.769c2.3-1.461,2.981-4.51,1.519-6.811
			c-4.766-7.503-13.799-11.112-22.423-8.96c-4.442,1.109-9.126,0.71-13.316-1.135c-2.494-1.098-3.626-4.01-2.528-6.504
			c0.319-0.725,0.808-1.363,1.426-1.859c14.38-11.551,35.401-9.257,46.951,5.123s9.257,35.401-5.123,46.951
			C93.089,83.639,89.234,85.663,85.1,86.898z"/>
		<path id="Finger_4_" fill="#FFFFFF" d="M48.54,35.242c5.677,5.205,13.588,7.214,21.061,5.349
			c7.663-1.913,15.689,1.294,19.924,7.961c0.78,1.228,0.417,2.855-0.811,3.635c-0.422,0.268-0.912,0.411-1.412,0.411H42.223
			C42.656,46.333,44.845,40.318,48.54,35.242z"/>
	</g>
</symbol>
<symbol  id="Deleted_Symbol" viewBox="-18.325 -36.151 36.651 36.651">
	<path id="Circles_2_" fill="#DEE0DE" fill-opacity="0.5" stroke="#333333" stroke-miterlimit="10" d="M-17.825-17.825
		C-17.825-7.981-9.845,0,0,0s17.825-7.981,17.825-17.825S9.845-35.651,0-35.651S-17.825-27.67-17.825-17.825L-17.825-17.825z"/>
	<g id="Stars_3_">
		<g opacity="0.8">
			<path fill="#FFFFFF" d="M9.365-30.715c-3.053,1.234-6.02,2.714-8.837,4.41L0-25.987l-0.528-0.318
				c-2.818-1.696-5.784-3.176-8.837-4.41c0.23,3.285,0.721,6.564,1.464,9.768l0.139,0.6l-0.465,0.404
				c-2.484,2.156-4.808,4.52-6.925,7.042c3.196,0.796,6.466,1.342,9.742,1.626l0.614,0.053l0.24,0.567
				C-3.275-7.627-1.745-4.686,0-1.893c1.745-2.793,3.275-5.734,4.557-8.763l0.24-0.567l0.614-0.053
				c3.276-0.284,6.546-0.83,9.742-1.626c-2.117-2.522-4.442-4.886-6.925-7.042l-0.465-0.404l0.139-0.6
				C8.644-24.151,9.135-27.43,9.365-30.715z"/>
		</g>
		<path d="M0-3.867c1.359-2.314,2.571-4.721,3.615-7.187l0.48-1.134l1.227-0.106c2.668-0.231,5.331-0.639,7.953-1.217
			c-1.781-2.008-3.696-3.904-5.718-5.659l-0.931-0.807l0.278-1.2c0.604-2.609,1.04-5.268,1.3-7.94
			c-2.461,1.074-4.855,2.309-7.149,3.69L0-24.793l-1.055-0.635c-2.294-1.381-4.688-2.616-7.149-3.69
			c0.26,2.672,0.695,5.331,1.3,7.94l0.278,1.2l-0.931,0.807c-2.022,1.755-3.938,3.651-5.718,5.659
			c2.622,0.578,5.285,0.986,7.953,1.217l1.227,0.106l0.48,1.134C-2.571-8.588-1.359-6.181,0-3.867 M0,0
			c-2.143-3.244-3.983-6.677-5.5-10.256c-3.873-0.336-7.707-1.026-11.454-2.061c2.423-3.04,5.119-5.852,8.055-8.399
			c-0.877-3.787-1.406-7.646-1.58-11.53c3.64,1.365,7.147,3.061,10.478,5.065c3.331-2.005,6.838-3.7,10.478-5.065
			c-0.173,3.884-0.702,7.743-1.58,11.53c2.936,2.548,5.632,5.359,8.055,8.399c-3.747,1.035-7.581,1.725-11.454,2.061
			C3.983-6.677,2.143-3.244,0,0L0,0z"/>
	</g>
</symbol>
<symbol  id="Point" viewBox="-46.688 -93.375 93.375 93.375">
	<g id="Circle_13_">
		<path opacity="0.25" fill="#FFFFFF" d="M0-92.874c-25.468,0-46.187,20.72-46.187,46.187S-25.468-0.5,0-0.5
			s46.187-20.72,46.187-46.187S25.468-92.874,0-92.874z"/>
		<path d="M0-1c25.192,0,45.687-20.495,45.687-45.688S25.192-92.375,0-92.375c-25.192,0-45.688,20.495-45.688,45.688S-25.192-1,0-1
			 M0,0c-25.785,0-46.688-20.903-46.688-46.688S-25.785-93.375,0-93.375s46.687,20.903,46.687,46.688S25.785,0,0,0L0,0z"/>
	</g>
	<g id="Finger_5_" opacity="0.75">
		<path opacity="0.25" fill="#333333" d="M-8.303-66.688C2.409-69.362,13.63-64.878,19.55-55.559
			c1.09,1.716,0.583,3.991-1.134,5.081c-0.59,0.375-1.275,0.574-1.974,0.574h-63.019c0.605-8.756,3.666-17.165,8.831-24.261
			C-29.808-66.888-18.75-64.08-8.303-66.688z"/>
		<g opacity="0.25">
			<path fill="#333333" d="M16.443-50.904c0.51,0,1.007-0.145,1.438-0.418c0.604-0.384,1.023-0.98,1.179-1.679
				c0.156-0.699,0.03-1.417-0.354-2.021c-4.546-7.157-12.32-11.43-20.796-11.43c-2.006,0-4.015,0.248-5.97,0.735
				c-2.619,0.654-5.313,0.985-8.009,0.985c-7.92,0-15.512-2.814-21.505-7.945c-4.471,6.462-7.193,13.948-7.918,21.773H16.443
				 M16.443-49.904h-63.02c0.605-8.756,3.666-17.165,8.832-24.261c5.984,5.486,13.744,8.432,21.676,8.433
				c2.589,0,5.196-0.314,7.767-0.956c2.065-0.516,4.15-0.765,6.212-0.765c8.631,0,16.862,4.372,21.641,11.894
				c1.09,1.716,0.583,3.991-1.133,5.081C17.826-50.103,17.142-49.904,16.443-49.904L16.443-49.904z"/>
		</g>
	</g>
</symbol>
<symbol  id="Rep_Pic" viewBox="0 0 93.018 93.018">
	<g id="Picture_boarder_7_">
		<path opacity="0.5" fill="#ADADAD" d="M0,46.509c0,25.686,20.823,46.509,46.509,46.509s46.509-20.823,46.509-46.509
			S72.195,0,46.509,0S0,20.823,0,46.509L0,46.509z"/>
		<g opacity="0.25">
			<path fill="#FFFFFF" d="M46.509,89.018c23.439,0,42.509-19.069,42.509-42.509S69.948,4,46.509,4S4,23.069,4,46.509
				S23.069,89.018,46.509,89.018 M46.509,93.018C20.823,93.018,0,72.194,0,46.509C0,20.823,20.823,0,46.509,0
				s46.509,20.823,46.509,46.509C93.018,72.194,72.195,93.018,46.509,93.018L46.509,93.018z"/>
		</g>
	</g>
	<path id="INSERT_13_" fill="#FFFFFF" fill-opacity="0.75" d="M28.016,60.315c0,10.214,8.28,18.493,18.493,18.493
		s18.493-8.28,18.493-18.493s-8.28-18.493-18.493-18.493S28.016,50.101,28.016,60.315L28.016,60.315z M64.823,27.057
		c0,6.312-5.117,11.43-11.43,11.43H39.266c-6.312,0-11.43-5.117-11.43-11.43V15.99c11.816-4.978,25.131-5.031,36.986-0.149V27.057z
		 M76.89,34.121c0,2.411-1.955,4.366-4.366,4.366c-2.411,0-4.366-1.955-4.366-4.366V17.365c3.107,1.566,6.034,3.464,8.731,5.662
		V34.121z M20.135,38.487c-2.411,0-4.366-1.955-4.366-4.366v-10.8c2.692-2.237,5.62-4.173,8.731-5.774v16.574
		C24.501,36.532,22.546,38.487,20.135,38.487z"/>
	<path id="B_6_" fill="#FFFFFF" d="M56.553,27.725c-0.091,0.027-0.179,0.065-0.261,0.114c-0.56,0.33-0.747,1.052-0.416,1.612
		c0.864,1.467,0.376,3.356-1.09,4.221c-0.474,0.28-1.015,0.427-1.565,0.427c-1.702,0-3.083-1.38-3.083-3.083c0-0.005,0-8.07,0-8.07
		h6.744c0.14,0,0.277-0.04,0.395-0.115c0.344-0.218,0.445-0.674,0.227-1.017c-0.712-1.12-2.061-1.659-3.349-1.338
		c-0.663,0.166-1.363,0.106-1.989-0.169c-0.372-0.164-0.542-0.599-0.378-0.971c0.048-0.108,0.121-0.204,0.213-0.278
		c2.147-1.725,5.287-1.382,7.012,0.765s1.382,5.287-0.765,7.012C57.746,27.238,57.171,27.54,56.553,27.725z"/>
	<g id="flyer_icon_4_">
	</g>
</symbol>
<symbol  id="Respect_3" viewBox="-46.688 -93.875 93.375 93.375">
	<g id="Circle_15_">
		<path opacity="0.25" fill="#FFFFFF" d="M0-93.375c-25.468,0-46.187,20.72-46.187,46.187S-25.468-1,0-1s46.187-20.72,46.187-46.187
			S25.468-93.375,0-93.375z"/>
		<path d="M0-1.5c25.192,0,45.688-20.495,45.688-45.688c0-25.192-20.495-45.687-45.688-45.687s-45.688,20.495-45.688,45.687
			C-45.688-21.995-25.192-1.5,0-1.5 M0-0.5c-25.785,0-46.688-20.902-46.688-46.688c0-25.785,20.903-46.687,46.688-46.687
			s46.688,20.902,46.688,46.687C46.688-21.402,25.785-0.5,0-0.5L0-0.5z"/>
	</g>
	<path id="OUlines_3_" d="M-2.982-74.335c-1.344-0.838-2.378-1.82-3.592-2.164c-2.015-0.571-4.036,0.541-5.109,2.48
		c-0.329,0.595-0.632,0.867-1.357,0.812c-2.305-0.173-3.897,0.961-4.879,2.967c-0.279,0.57-0.529,0.826-1.215,0.845
		c-2.429,0.067-4.28,1.693-4.725,4.126c-0.143,0.781-0.422,1.182-1.231,1.451c-3.276,1.091-4.279,4.448-2.375,7.886
		c-1.007,1.229-2.032,2.48-3.131,3.821c-0.426-0.735-0.743-1.334-1.108-1.902c-0.817-1.27-2.237-1.689-3.543-0.942
		c-1.906,1.091-3.789,2.229-5.627,3.43c-1.343,0.878-1.538,2.322-0.642,3.92c1.973,3.519,3.96,7.03,5.94,10.544
		c2.352,4.176,4.699,8.356,7.056,12.529c1.102,1.951,2.432,2.294,4.371,1.135c1.303-0.779,2.594-1.578,3.891-2.365
		c2.679-1.625,2.936-2.481,1.418-5.552c1.465-0.658,2.909-1.358,4.396-1.95c0.578-0.23,1.272-0.151,1.88-0.327
		c1.341-0.389,2.254-0.151,3.3,0.995c0.826,0.905,2.33,1.373,3.616,1.649c6.707,1.437,13.396,1.349,20.028-0.55
		c1.479-0.424,2.98-0.565,4.434,0.167c-1.453,3.616-1.369,3.855,2.07,5.946c1.16,0.706,2.309,1.43,3.478,2.12
		c1.62,0.956,3.06,0.638,3.973-0.974c4.45-7.853,8.88-15.718,13.292-23.592c0.863-1.54,0.441-2.961-1.071-3.906
		c-1.558-0.974-3.13-1.924-4.702-2.875c-1.981-1.199-3.315-0.854-4.465,1.14c-0.198,0.344-0.404,0.683-0.619,1.047
		c-1.416-1.186-2.809-2.34-4.176-3.523c-0.131-0.113-0.167-0.426-0.133-0.627c0.713-4.222-0.693-6.135-4.984-6.657
		c-0.477-2.631-1.983-4.228-4.766-4.499c-0.222-0.022-0.486-0.461-0.584-0.755c-0.856-2.573-1.972-3.461-4.661-3.732
		c-0.392-0.039-0.915-0.178-1.12-0.459c-2.276-3.117-5.349-3.66-8.859-2.822C-0.141-75.111-1.749-74.658-2.982-74.335z
		 M-20.117-33.455c-3.108-5.521-6.098-10.832-9.015-16.015c0.953-1.201,1.815-2.247,2.628-3.329c0.426-0.568,0.75-0.697,1.475-0.33
		c0.807,0.408,1.785,0.627,2.696,0.65c1.822,0.048,3.122-0.991,3.936-2.305c0.627,0.534,1.152,1.08,1.769,1.489
		c2.717,1.799,6.183,0.205,6.976-2.558c0.398-1.386,1.015-2.1,2.306-2.722c2.026-0.976,2.734-2.904,2.582-5.137
		c1.814-0.477,3.119-1.488,3.854-3.192c0.754-1.749,0.367-3.345-0.668-4.851c5.198-1.889,7.974-1.842,9.329,0.431
		c-2.3,1.119-4.595,2.24-6.894,3.354c-1.314,0.637-1.719,1.266-1.35,2.131c0.363,0.85,1.191,0.978,2.459,0.367
		c2.41-1.162,4.786-2.402,7.243-3.454c0.861-0.369,1.92-0.383,2.886-0.372c1,0.011,1.297,0.911,1.366,1.694
		c0.029,0.324-0.478,0.814-0.855,1.038c-2.816,1.673-5.664,3.294-8.496,4.94c-1.108,0.644-1.491,1.462-0.974,2.198
		c0.658,0.938,1.448,0.709,2.304,0.206c3.03-1.782,6.056-3.575,9.146-5.248c0.699-0.378,1.659-0.427,2.484-0.376
		c0.936,0.059,1.386,0.804,1.593,1.703c0.218,0.945-0.429,1.243-1.062,1.62c-3.432,2.046-6.86,4.097-10.272,6.176
		c-0.661,0.403-1.266,0.946-0.765,1.855C7-52.703,7.966-52.479,8.73-52.942c3.824-2.321,7.645-4.647,11.474-6.959
		c1.357-0.819,2.727-0.667,3.441,0.345c0.733,1.04,0.504,2.155-0.796,3.218c-1.884,1.54-3.784,3.065-5.744,4.506
		C11.797-47.93,6.325-44.28,0.405-41.347c-1.359,0.673-2.966,0.24-4.024-0.857c-1.35-1.4-2.744-2.805-4.319-3.926
		c-1.785-1.271-3.89-1.828-6.129-1.436c-1.535,0.269-2.481,1.183-2.34,2.685c0.122,1.303,0.523,2.654,1.119,3.822
		c0.808,1.584,1.919,3.013,3.015,4.684C-15.199-36.144-17.806-35.355-20.117-33.455z M20.279-33.742
		c-2.675-1.203-5.256-0.844-7.837-0.121C6.571-32.22,0.667-32.484-5.234-33.636c-0.819-0.16-1.85-0.476-2.299-1.08
		c-2.027-2.72-3.901-5.556-5.776-8.385c-0.295-0.444-0.313-1.072-0.462-1.624c0.314-0.091,0.426-0.143,0.54-0.152
		c0.198-0.015,0.4-0.014,0.598,0.001c2.669,0.193,4.727,1.608,6.215,3.645c1.226,1.679,2.756,2.49,4.657,3.014
		c0.972,0.268,1.733,0.184,2.609-0.252c8.295-4.134,15.868-9.36,23.09-15.13c0.228-0.182,0.812-0.251,1.003-0.095
		c1.5,1.225,2.945,2.519,4.417,3.8C26.301-44.456,23.332-39.175,20.279-33.742z M-25.935-25.528
		c-4.477-7.953-8.902-15.815-13.358-23.732c1.853-1.144,3.541-2.186,5.291-3.266c4.476,7.951,8.908,15.825,13.368,23.75
		C-22.434-27.674-24.123-26.639-25.935-25.528z M39.301-49.298c-4.477,7.959-8.896,15.814-13.373,23.774
		c-1.835-1.113-3.556-2.156-5.307-3.218c4.497-7.993,8.917-15.848,13.38-23.781C35.788-51.434,37.485-50.402,39.301-49.298z
		 M-19.178-66.959c0.566,0.358,1.012,0.503,1.246,0.81c1.887,2.479,3.746,4.98,5.588,7.492c0.669,0.912,0.34,2.223-0.675,2.936
		c-1.002,0.704-1.813,0.579-2.569-0.439c-1.739-2.342-3.456-4.701-5.199-7.04c-0.542-0.727-0.66-1.529-0.149-2.221
		C-20.501-66.012-19.816-66.419-19.178-66.959z M-7.229-62.615c-0.603,0.633-1.104,1.428-1.825,1.813
		c-0.422,0.226-1.456,0.011-1.764-0.371c-1.602-1.98-3.094-4.054-4.552-6.145c-0.615-0.883-0.196-2.139,0.782-2.811
		c0.962-0.661,1.815-0.512,2.564,0.492c1.358,1.821,2.707,3.649,4.034,5.492C-7.724-63.774-7.574-63.32-7.229-62.615z
		 M-5.296-66.247c-0.576-0.291-1.023-0.378-1.236-0.648c-1.007-1.281-2.009-2.574-2.892-3.941c-0.551-0.852,0.005-2.173,0.99-2.755
		c0.933-0.551,1.722-0.367,2.455,0.605c0.79,1.048,1.673,2.05,2.292,3.194c0.303,0.559,0.335,1.507,0.061,2.072
		C-3.926-67.103-4.72-66.726-5.296-66.247z M-20.144-57.169c-0.584,0.629-1.078,1.41-1.787,1.825
		c-0.394,0.231-1.335,0.051-1.696-0.294c-0.768-0.731-1.37-1.658-1.941-2.566c-0.51-0.81-0.325-1.728,0.356-2.281
		c0.556-0.452,1.382-0.77,2.092-0.779C-22.389-61.271-20.399-58.215-20.144-57.169z"/>
	<g id="Left_hand_4_">
		<path fill="#333333" fill-opacity="0.25" d="M-20.117-33.455c2.312-1.901,4.918-2.69,7.845-2.921
			c-1.096-1.67-2.207-3.1-3.015-4.684c-0.596-1.168-0.997-2.518-1.119-3.822c-0.141-1.502,0.805-2.416,2.34-2.685
			c2.24-0.392,4.344,0.164,6.129,1.436c1.575,1.122,2.97,2.526,4.319,3.926c1.057,1.097,2.665,1.53,4.024,0.857
			c5.92-2.933,11.391-6.583,16.699-10.485c1.96-1.441,3.86-2.966,5.744-4.506c1.3-1.063,1.529-2.178,0.796-3.218
			c-0.713-1.011-2.084-1.164-3.441-0.345c-3.829,2.312-7.65,4.638-11.474,6.959c-0.764,0.464-1.73,0.239-2.165-0.55
			c-0.502-0.909,0.104-1.452,0.765-1.855c3.412-2.079,6.84-4.13,10.272-6.176c0.633-0.377,1.28-0.676,1.062-1.62
			c-0.207-0.898-0.658-1.644-1.593-1.703c-0.824-0.052-1.785-0.002-2.484,0.376c-3.09,1.673-6.116,3.466-9.146,5.248
			c-0.856,0.503-1.646,0.732-2.304-0.206c-0.516-0.736-0.134-1.553,0.974-2.198c2.832-1.646,5.68-3.267,8.496-4.94
			c0.377-0.224,0.884-0.713,0.855-1.038c-0.069-0.783-0.367-1.683-1.366-1.694c-0.966-0.011-2.025,0.003-2.886,0.372
			c-2.457,1.052-4.833,2.292-7.243,3.454c-1.268,0.611-2.096,0.483-2.459-0.367c-0.369-0.864,0.036-1.494,1.35-2.131
			c2.298-1.114,4.594-2.234,6.894-3.354c-1.354-2.273-4.13-2.32-9.329-0.431c1.035,1.506,1.422,3.102,0.668,4.851
			c-0.735,1.704-2.04,2.715-3.854,3.192c0.152,2.233-0.556,4.16-2.582,5.137c-1.291,0.622-1.909,1.336-2.306,2.722
			c-0.793,2.763-4.259,4.357-6.976,2.558c-0.617-0.408-1.142-0.955-1.769-1.489c-0.814,1.314-2.113,2.353-3.936,2.305
			c-0.911-0.024-1.889-0.242-2.696-0.65c-0.725-0.367-1.048-0.238-1.475,0.33c-0.813,1.082-1.675,2.128-2.628,3.329
			C-26.215-44.287-23.225-38.976-20.117-33.455z"/>
		<path fill="#FFFFFF" d="M-25.935-25.528c1.812-1.111,3.501-2.146,5.301-3.249c-4.461-7.925-8.893-15.798-13.368-23.75
			c-1.75,1.08-3.438,2.122-5.291,3.266C-34.837-41.343-30.412-33.481-25.935-25.528z"/>
	</g>
	<g id="Right_hand_4_">
		<path fill="#99AD99" d="M-19.178-66.959c-0.637,0.541-1.322,0.947-1.759,1.538c-0.511,0.692-0.393,1.494,0.149,2.221
			c1.743,2.339,3.459,4.698,5.199,7.04c0.756,1.018,1.567,1.143,2.569,0.439c1.015-0.713,1.344-2.023,0.675-2.936
			c-1.842-2.512-3.701-5.013-5.588-7.492C-18.166-66.456-18.613-66.601-19.178-66.959z"/>
		<path fill="#99AD99" d="M-7.229-62.615c-0.345-0.705-0.494-1.159-0.761-1.529c-1.327-1.844-2.676-3.672-4.034-5.492
			c-0.749-1.004-1.602-1.153-2.564-0.492c-0.978,0.672-1.398,1.928-0.782,2.811c1.458,2.091,2.95,4.165,4.552,6.145
			c0.308,0.381,1.342,0.596,1.764,0.371C-8.333-61.187-7.832-61.982-7.229-62.615z"/>
		<path fill="#99AD99" d="M-5.296-66.247c0.576-0.48,1.37-0.856,1.669-1.473c0.274-0.564,0.242-1.512-0.061-2.072
			c-0.619-1.143-1.501-2.146-2.292-3.194c-0.733-0.972-1.522-1.156-2.455-0.605c-0.985,0.582-1.541,1.903-0.99,2.755
			c0.884,1.366,1.886,2.659,2.892,3.941C-6.319-66.624-5.872-66.538-5.296-66.247z"/>
		<path fill="#99AD99" d="M-20.144-57.169c-0.256-1.047-2.245-4.103-2.977-4.094c-0.71,0.008-1.536,0.327-2.092,0.779
			c-0.681,0.553-0.866,1.471-0.356,2.281c0.572,0.908,1.174,1.835,1.941,2.566c0.362,0.344,1.302,0.525,1.696,0.294
			C-21.222-55.759-20.727-56.54-20.144-57.169z"/>
		<path fill="#99AD99" d="M20.279-33.742c3.054-5.433,6.022-10.714,9.079-16.151c-1.472-1.281-2.916-2.574-4.417-3.8
			c-0.191-0.156-0.775-0.087-1.003,0.095c-7.222,5.77-14.795,10.996-23.09,15.13c-0.876,0.436-1.636,0.52-2.609,0.252
			c-1.901-0.524-3.431-1.335-4.657-3.014c-1.487-2.037-3.546-3.452-6.215-3.645c-0.199-0.014-0.4-0.015-0.598-0.001
			c-0.115,0.008-0.226,0.061-0.54,0.152c0.149,0.552,0.167,1.18,0.462,1.624c1.875,2.83,3.749,5.666,5.776,8.385
			c0.45,0.604,1.48,0.92,2.299,1.08c5.901,1.151,11.805,1.416,17.676-0.228C15.022-34.586,17.604-34.946,20.279-33.742z"/>
		<path fill="#FFFFFF" d="M39.301-49.298c-1.815-1.104-3.513-2.137-5.301-3.224c-4.463,7.933-8.883,15.788-13.38,23.781
			c1.752,1.062,3.472,2.105,5.307,3.218C30.405-33.483,34.824-41.339,39.301-49.298z"/>
	</g>
</symbol>
<symbol  id="Review" viewBox="-46.691 -93.378 93.38 93.378">
	<g id="Review_2_">
		<path opacity="0.25" fill="#FFFFFF" d="M0.004-92.878c-10.066,0-19.644,3.189-27.697,9.223
			c-20.383,15.27-24.542,44.275-9.272,64.657C-28.159-7.242-14.672-0.5,0.035-0.5c10.037,0,19.6-3.19,27.656-9.225
			C48.074-24.995,52.234-54,36.964-74.383c-1.294-1.726-1.332-4.073-0.095-5.84l5.483-7.834c-3.044,2.352-6.796,3.638-10.659,3.638
			c-3.04,0-6.041-0.801-8.679-2.317c-6.992-4.018-14.948-6.142-23.008-6.142C0.005-92.878,0.005-92.878,0.004-92.878z"/>
		<path d="M0.036-1c9.928,0,19.388-3.156,27.356-9.125c9.767-7.317,16.1-17.999,17.832-30.079s-1.343-24.112-8.659-33.878
			c-1.424-1.899-1.466-4.481-0.105-6.426l3.981-5.688c-2.657,1.484-5.668,2.279-8.748,2.279c-3.127,0-6.215-0.824-8.929-2.384
			c-6.916-3.975-14.786-6.076-22.759-6.076c-9.958,0-19.432,3.155-27.398,9.123c-20.162,15.104-24.277,43.795-9.172,63.958
			C-27.854-7.669-14.513-1,0.036-1 M0.036,0c-14.204,0-28.229-6.456-37.401-18.698c-15.459-20.636-11.263-49.898,9.373-65.357
			c8.253-6.183,18.105-9.323,27.998-9.323c8,0,16.026,2.053,23.258,6.209c2.627,1.51,5.536,2.251,8.43,2.251
			c3.946,0,7.865-1.378,11.004-4.063c1.51-1.292,2.851-2.769,3.99-4.396l-9.408,13.442c-1.109,1.585-1.075,3.705,0.086,5.253
			c15.459,20.636,11.263,49.898-9.373,65.357C19.598-3.037,9.774,0,0.036,0L0.036,0z"/>
	</g>
</symbol>
<symbol  id="Search_icon" viewBox="0 -45.328 90.657 90.657">
	<g id="Circle_1_">
		<path opacity="0.5" fill="#FFFFFF" d="M0,0c0,25.034,20.294,45.328,45.328,45.328S90.657,25.034,90.657,0
			S70.363-45.328,45.328-45.328S0-25.034,0,0L0,0z"/>
		<g opacity="0.25">
			<path fill="#FFFFFF" d="M45.329,43.329C69.22,43.329,88.657,23.892,88.657,0c0-23.891-19.437-43.328-43.328-43.328
				C21.437-43.328,2-23.891,2,0C2,23.892,21.437,43.329,45.329,43.329 M45.329,45.329C20.294,45.329,0,25.034,0,0
				s20.294-45.328,45.329-45.328c25.034,0,45.328,20.294,45.328,45.328S70.362,45.329,45.329,45.329L45.329,45.329z"/>
		</g>
	</g>
	<g id="Lens_2_">
		<g>
			<path fill="#FFFFFF" d="M57.324,34.464c-12.066,3.331-24.547-3.75-27.879-15.815c-2.304-8.345,0.347-17.274,6.833-23.009
				L23.79-27.397c-1.344-2.48-0.424-5.581,2.057-6.926c2.48-1.344,5.581-0.424,6.926,2.057L45.26-9.229
				c12.066-3.331,24.547,3.75,27.879,15.815C76.47,18.651,69.389,31.133,57.324,34.464z M51.292-3.407
				c-8.85,0-16.024,7.174-16.024,16.024s7.174,16.024,16.024,16.024c8.85,0,16.024-7.174,16.024-16.024S60.142-3.407,51.292-3.407z"
				/>
		</g>
	</g>
</symbol>
<symbol  id="Star" viewBox="-53.499 -53.5 106.999 106.999">
	<g id="stars_2_">
		<g id="Star_2_">
			<g id="Circles_7_">
				<g opacity="0.5">
					<path fill="#DEE0DE" d="M-53.499,0c0,29.547,23.952,53.499,53.499,53.499S53.499,29.547,53.499,0S29.547-53.5,0-53.5
						S-53.499-29.547-53.499,0L-53.499,0z"/>
				</g>
				<g opacity="0">
					<path fill="#333333" d="M0,50.498c27.845,0,50.498-22.653,50.498-50.498S27.845-50.499,0-50.499S-50.498-27.845-50.498,0
						S-27.845,50.498,0,50.498 M0,53.499c-29.547,0-53.499-23.952-53.499-53.499S-29.547-53.5,0-53.5S53.499-29.547,53.499,0
						S29.547,53.499,0,53.499L0,53.499z"/>
				</g>
			</g>
			<g id="Stars_7_">
				<g opacity="0.8">
					<path fill="#FFFFFF" d="M26.706-8.677c2.633-11.366,4.22-22.949,4.74-34.605C20.522-39.185,9.996-34.097,0-28.08
						c-9.996-6.017-20.522-11.105-31.446-15.202c0.52,11.655,2.107,23.239,4.74,34.605C-35.517-1.03-43.609,7.408-50.881,16.532
						c11.246,3.107,22.752,5.177,34.376,6.185C-11.955,33.46-6.43,43.764,0,53.499c6.43-9.735,11.955-20.039,16.505-30.782
						c11.623-1.008,23.13-3.078,34.376-6.185C43.609,7.408,35.517-1.03,26.706-8.677z"/>
				</g>
				<g opacity="0.5">
					<path d="M0,41.894c4.081-6.946,7.716-14.171,10.85-21.572l1.442-3.404l3.683-0.319c8.007-0.694,16.002-1.919,23.869-3.653
						C34.498,6.918,28.751,1.229,22.681-4.04l-2.792-2.423l0.834-3.601c1.814-7.83,3.12-15.811,3.901-23.829
						c-7.384,3.221-14.571,6.929-21.458,11.074L0-20.913l-3.167-1.906c-6.886-4.145-14.074-7.853-21.458-11.074
						c0.782,8.018,2.087,15.999,3.901,23.829l0.834,3.601L-22.68-4.04c-6.07,5.268-11.818,10.958-17.163,16.985
						c7.867,1.734,15.861,2.959,23.869,3.653l3.683,0.319l1.442,3.404C-7.716,27.723-4.081,34.947,0,41.894 M0,53.499
						c-6.43-9.735-11.955-20.039-16.505-30.782c-11.623-1.008-23.13-3.078-34.376-6.185C-43.609,7.408-35.517-1.03-26.706-8.677
						c-2.633-11.366-4.22-22.949-4.74-34.605C-20.522-39.185-9.996-34.097,0-28.08c9.996-6.017,20.522-11.105,31.446-15.202
						c-0.52,11.655-2.107,23.239-4.74,34.605C35.517-1.03,43.609,7.408,50.881,16.532c-11.246,3.107-22.752,5.177-34.376,6.185
						C11.955,33.46,6.43,43.764,0,53.499L0,53.499z"/>
				</g>
			</g>
		</g>
	</g>
</symbol>
<symbol  id="User" viewBox="-60 -60 120 120">
	<g id="Rep_Pic_2_">
		<g id="Picture_boarder_6_">
			<path opacity="0.5" fill="#ADADAD" d="M-60,0c0,33.137,26.863,60,60,60S60,33.137,60,0S33.137-60,0-60S-60-33.137-60,0L-60,0z"/>
		</g>
		<path id="INSERT_6_" fill="#FFFFFF" fill-opacity="0.75" d="M-23.858,17.811c0,13.176,10.681,23.858,23.858,23.858
			s23.858-10.681,23.858-23.858S13.176-6.047,0-6.047S-23.858,4.635-23.858,17.811L-23.858,17.811z M23.626-25.094
			c0,8.144-6.602,14.745-14.745,14.745H-9.344c-8.144,0-14.745-6.602-14.745-14.745v-14.278c15.244-6.422,32.42-6.491,47.715-0.193
			V-25.094z M39.194-15.981c0,3.111-2.522,5.632-5.632,5.632s-5.632-2.522-5.632-5.632v-21.617c4.008,2.02,7.785,4.469,11.264,7.304
			V-15.981z M-34.024-10.349c-3.111,0-5.632-2.522-5.632-5.632v-13.932c3.473-2.886,7.25-5.383,11.264-7.449v21.382
			C-28.392-12.87-30.913-10.349-34.024-10.349z"/>
		<g id="flyer_icon_2_">
		</g>
	</g>
</symbol>
<symbol  id="View" viewBox="-28.855 -57.709 57.71 57.71">
	<g id="circle_3_">
		<path opacity="0.25" fill="#FFFFFF" d="M0-57.209c-15.635,0-28.355,12.72-28.355,28.355S-15.635-0.499,0-0.499
			s28.355-12.72,28.355-28.355S15.635-57.209,0-57.209z"/>
		<path d="M0-0.999c15.359,0,27.855-12.496,27.855-27.855S15.359-56.709,0-56.709s-27.855,12.496-27.855,27.855
			S-15.359-0.999,0-0.999 M0,0.001c-15.936,0-28.855-12.918-28.855-28.855c0-15.936,12.919-28.855,28.855-28.855
			S28.855-44.79,28.855-28.854C28.855-12.917,15.936,0.001,0,0.001L0,0.001z"/>
	</g>
	<path id="eye_2_" fill="#FFFFFF" stroke="#000000" stroke-miterlimit="10" stroke-opacity="0.25" d="M17.999-33.082
		c-10.708-7.871-25.289-7.871-35.997,0c-0.428,0.315-0.806,0.692-1.12,1.12c-1.716,2.335-1.215,5.619,1.12,7.336
		c10.708,7.871,25.289,7.871,35.997,0c0.428-0.315,0.806-0.692,1.12-1.12C20.835-28.081,20.334-31.365,17.999-33.082z"/>
	<path id="Nenni_3_" fill-opacity="0.25" d="M8.609-19.987c-5.618,1.659-11.601,1.659-17.218,0l-0.025-0.007
		c-4.882-4.757-4.999-12.57-0.252-17.469c0.082-0.085,0.165-0.168,0.25-0.25l0.027-0.008c5.618-1.659,11.601-1.659,17.218,0
		l0.025,0.007c4.882,4.757,4.999,12.57,0.252,17.469c-0.082,0.085-0.165,0.168-0.25,0.25"/>
</symbol>
<use xlink:href="#Respect_3"  width="93.375" height="93.375" id="XMLID_8_" x="-46.688" y="-93.875" transform="matrix(1.2851 0 0 -1.2851 60.1569 -0.6741)" display="none" overflow="visible"/>
<use xlink:href="#Point"  width="93.375" height="93.375" x="-46.688" y="-93.375" transform="matrix(1.2851 0 0 -1.2851 60.1286 -0.0104)" display="none" overflow="visible"/>
<g display="none">
	
		<use xlink:href="#Review"  width="93.38" height="93.378" id="XMLID_2_" x="-46.691" y="-93.378" transform="matrix(1.2851 0 0 -1.2851 60.129 -0.0139)" display="inline" overflow="visible"/>
	
		<use xlink:href="#Star"  width="106.999" height="106.999" x="-53.499" y="-53.5" transform="matrix(1 0 0 -1 60 60)" display="inline" overflow="visible"/>
</g>
<use xlink:href="#View"  width="57.71" height="57.71" id="XMLID_3_" x="-28.855" y="-57.709" transform="matrix(1.2852 0 0 -1.2852 60 22.916)" display="none" overflow="visible"/>
<use xlink:href="#Brand_Logo"  width="151.076" height="151.084" x="0" y="0" transform="matrix(1.2851 0 0 -1.2851 -37.0748 157.0796)" display="none" overflow="visible"/>
<use xlink:href="#Rep_Pic"  width="93.018" height="93.018" x="0" y="0" transform="matrix(1.2901 0 0 -1.2901 0 120)" display="none" overflow="visible"/>
<use xlink:href="#Search_icon"  width="90.657" height="90.657" y="-45.328" transform="matrix(1.3237 0 0 -1.3237 0 60)" display="none" overflow="visible"/>
<use xlink:href="#User"  width="120" height="120" x="-60" y="-60" transform="matrix(1 0 0 -1 60 60.0001)" overflow="visible"/>
</svg>
